<mxfile host="Electron" modified="2023-09-22T08:39:23.262Z" agent="Mozilla/5.0 (Windows NT 10.0; Win64; x64) AppleWebKit/537.36 (KHTML, like Gecko) draw.io/21.7.5 Chrome/114.0.5735.289 Electron/25.8.1 Safari/537.36" etag="fMCcJYXcjtZ6ayYqrQeH" version="21.7.5" type="device">
  <diagram name="Страница — 1" id="2GaZIY0xn27ctpKgqx-A">
    <mxGraphModel dx="1100" dy="817" grid="1" gridSize="10" guides="1" tooltips="1" connect="1" arrows="1" fold="1" page="1" pageScale="1" pageWidth="827" pageHeight="1169" math="0" shadow="0">
      <root>
        <mxCell id="0" />
        <mxCell id="1" parent="0" />
        <mxCell id="sulaUqdY_GVXhDthLYDI-1" value="0&lt;br&gt;Постройка дома" style="ellipse;whiteSpace=wrap;html=1;aspect=fixed;fillColor=#fff2cc;strokeColor=#d6b656;" vertex="1" parent="1">
          <mxGeometry x="314" y="280" width="200" height="200" as="geometry" />
        </mxCell>
        <mxCell id="sulaUqdY_GVXhDthLYDI-2" value="Магазин" style="whiteSpace=wrap;html=1;aspect=fixed;fillColor=#dae8fc;strokeColor=#6c8ebf;" vertex="1" parent="1">
          <mxGeometry x="60" y="340" width="80" height="80" as="geometry" />
        </mxCell>
        <mxCell id="sulaUqdY_GVXhDthLYDI-3" value="Архитектор" style="whiteSpace=wrap;html=1;aspect=fixed;fillColor=#dae8fc;strokeColor=#6c8ebf;" vertex="1" parent="1">
          <mxGeometry x="610" y="130" width="80" height="80" as="geometry" />
        </mxCell>
        <mxCell id="sulaUqdY_GVXhDthLYDI-4" value="Заказчик" style="whiteSpace=wrap;html=1;aspect=fixed;fillColor=#dae8fc;strokeColor=#6c8ebf;" vertex="1" parent="1">
          <mxGeometry x="650" y="450" width="80" height="80" as="geometry" />
        </mxCell>
        <mxCell id="sulaUqdY_GVXhDthLYDI-5" value="" style="endArrow=classic;html=1;rounded=0;exitX=1;exitY=0.5;exitDx=0;exitDy=0;entryX=0;entryY=0.5;entryDx=0;entryDy=0;fillColor=#dae8fc;strokeColor=#6c8ebf;" edge="1" parent="1" source="sulaUqdY_GVXhDthLYDI-2" target="sulaUqdY_GVXhDthLYDI-1">
          <mxGeometry width="50" height="50" relative="1" as="geometry">
            <mxPoint x="300" y="290" as="sourcePoint" />
            <mxPoint x="350" y="240" as="targetPoint" />
          </mxGeometry>
        </mxCell>
        <mxCell id="sulaUqdY_GVXhDthLYDI-13" value="Прайс-лист на материалы" style="edgeLabel;html=1;align=center;verticalAlign=middle;resizable=0;points=[];" vertex="1" connectable="0" parent="sulaUqdY_GVXhDthLYDI-5">
          <mxGeometry x="-0.1034" relative="1" as="geometry">
            <mxPoint y="-20" as="offset" />
          </mxGeometry>
        </mxCell>
        <mxCell id="sulaUqdY_GVXhDthLYDI-6" value="" style="endArrow=classic;html=1;rounded=0;exitX=0;exitY=0.5;exitDx=0;exitDy=0;entryX=0.5;entryY=0;entryDx=0;entryDy=0;fillColor=#dae8fc;strokeColor=#6c8ebf;" edge="1" parent="1" source="sulaUqdY_GVXhDthLYDI-3" target="sulaUqdY_GVXhDthLYDI-1">
          <mxGeometry width="50" height="50" relative="1" as="geometry">
            <mxPoint x="550" y="170" as="sourcePoint" />
            <mxPoint x="600" y="120" as="targetPoint" />
            <Array as="points">
              <mxPoint x="414" y="170" />
            </Array>
          </mxGeometry>
        </mxCell>
        <mxCell id="sulaUqdY_GVXhDthLYDI-14" value="Проект дома" style="edgeLabel;html=1;align=center;verticalAlign=middle;resizable=0;points=[];" vertex="1" connectable="0" parent="sulaUqdY_GVXhDthLYDI-6">
          <mxGeometry x="0.1438" y="-1" relative="1" as="geometry">
            <mxPoint x="5" y="-19" as="offset" />
          </mxGeometry>
        </mxCell>
        <mxCell id="sulaUqdY_GVXhDthLYDI-7" value="" style="endArrow=classic;html=1;rounded=0;exitX=1;exitY=0.5;exitDx=0;exitDy=0;entryX=0;entryY=0.5;entryDx=0;entryDy=0;fillColor=#dae8fc;strokeColor=#6c8ebf;" edge="1" parent="1" source="sulaUqdY_GVXhDthLYDI-1" target="sulaUqdY_GVXhDthLYDI-4">
          <mxGeometry width="50" height="50" relative="1" as="geometry">
            <mxPoint x="520" y="380" as="sourcePoint" />
            <mxPoint x="570" y="330" as="targetPoint" />
            <Array as="points">
              <mxPoint x="600" y="380" />
              <mxPoint x="600" y="490" />
            </Array>
          </mxGeometry>
        </mxCell>
        <mxCell id="sulaUqdY_GVXhDthLYDI-15" value="Акт приёмки" style="edgeLabel;html=1;align=center;verticalAlign=middle;resizable=0;points=[];" vertex="1" connectable="0" parent="sulaUqdY_GVXhDthLYDI-7">
          <mxGeometry x="0.0298" y="2" relative="1" as="geometry">
            <mxPoint x="38" y="-31" as="offset" />
          </mxGeometry>
        </mxCell>
        <mxCell id="sulaUqdY_GVXhDthLYDI-8" value="1&lt;br&gt;Согласование проекта" style="ellipse;whiteSpace=wrap;html=1;aspect=fixed;fillColor=#fff2cc;strokeColor=#d6b656;" vertex="1" parent="1">
          <mxGeometry x="60" y="770" width="120" height="120" as="geometry" />
        </mxCell>
        <mxCell id="sulaUqdY_GVXhDthLYDI-9" value="2&lt;br&gt;Выполнение строительных &lt;br&gt;работ" style="ellipse;whiteSpace=wrap;html=1;aspect=fixed;fillColor=#fff2cc;strokeColor=#d6b656;" vertex="1" parent="1">
          <mxGeometry x="320" y="920" width="120" height="120" as="geometry" />
        </mxCell>
        <mxCell id="sulaUqdY_GVXhDthLYDI-10" value="3&lt;br&gt;Сдача работ" style="ellipse;whiteSpace=wrap;html=1;aspect=fixed;fillColor=#fff2cc;strokeColor=#d6b656;" vertex="1" parent="1">
          <mxGeometry x="600" y="1040" width="120" height="120" as="geometry" />
        </mxCell>
        <mxCell id="sulaUqdY_GVXhDthLYDI-11" value="" style="endArrow=classic;html=1;rounded=0;entryX=0.5;entryY=0;entryDx=0;entryDy=0;startArrow=circle;startFill=1;fillColor=#e1d5e7;strokeColor=#9673a6;" edge="1" parent="1" target="sulaUqdY_GVXhDthLYDI-8">
          <mxGeometry width="50" height="50" relative="1" as="geometry">
            <mxPoint x="120" y="650" as="sourcePoint" />
            <mxPoint x="180" y="600" as="targetPoint" />
          </mxGeometry>
        </mxCell>
        <mxCell id="sulaUqdY_GVXhDthLYDI-25" value="Проект дома" style="edgeLabel;html=1;align=center;verticalAlign=middle;resizable=0;points=[];" vertex="1" connectable="0" parent="sulaUqdY_GVXhDthLYDI-11">
          <mxGeometry x="-0.2889" y="4" relative="1" as="geometry">
            <mxPoint x="36" y="-13" as="offset" />
          </mxGeometry>
        </mxCell>
        <mxCell id="sulaUqdY_GVXhDthLYDI-12" value="Прайс-лист на материалы" style="endArrow=classic;html=1;rounded=0;entryX=0;entryY=0.5;entryDx=0;entryDy=0;startArrow=circle;startFill=1;fillColor=#e1d5e7;strokeColor=#9673a6;" edge="1" parent="1" target="sulaUqdY_GVXhDthLYDI-9">
          <mxGeometry x="-0.1333" y="10" width="50" height="50" relative="1" as="geometry">
            <mxPoint x="20" y="980" as="sourcePoint" />
            <mxPoint x="130" y="780" as="targetPoint" />
            <mxPoint as="offset" />
          </mxGeometry>
        </mxCell>
        <mxCell id="sulaUqdY_GVXhDthLYDI-16" value="" style="endArrow=classic;html=1;rounded=0;fillColor=#e1d5e7;strokeColor=#9673a6;" edge="1" parent="1">
          <mxGeometry width="50" height="50" relative="1" as="geometry">
            <mxPoint x="720" y="1100" as="sourcePoint" />
            <mxPoint x="820" y="1100" as="targetPoint" />
          </mxGeometry>
        </mxCell>
        <mxCell id="sulaUqdY_GVXhDthLYDI-28" value="Акт приёмки" style="edgeLabel;html=1;align=center;verticalAlign=middle;resizable=0;points=[];" vertex="1" connectable="0" parent="sulaUqdY_GVXhDthLYDI-16">
          <mxGeometry x="-0.36" y="1" relative="1" as="geometry">
            <mxPoint x="8" y="-9" as="offset" />
          </mxGeometry>
        </mxCell>
        <mxCell id="sulaUqdY_GVXhDthLYDI-17" value="" style="endArrow=classic;html=1;rounded=0;exitX=1;exitY=0.5;exitDx=0;exitDy=0;entryX=0;entryY=0.5;entryDx=0;entryDy=0;fillColor=#e1d5e7;strokeColor=#9673a6;" edge="1" parent="1" source="sulaUqdY_GVXhDthLYDI-9" target="sulaUqdY_GVXhDthLYDI-10">
          <mxGeometry width="50" height="50" relative="1" as="geometry">
            <mxPoint x="480" y="980" as="sourcePoint" />
            <mxPoint x="530" y="930" as="targetPoint" />
            <Array as="points">
              <mxPoint x="520" y="980" />
              <mxPoint x="520" y="1100" />
            </Array>
          </mxGeometry>
        </mxCell>
        <mxCell id="sulaUqdY_GVXhDthLYDI-18" value="" style="endArrow=classic;html=1;rounded=0;exitX=1;exitY=0.5;exitDx=0;exitDy=0;entryX=0;entryY=0;entryDx=0;entryDy=0;fillColor=#e1d5e7;strokeColor=#9673a6;" edge="1" parent="1" source="sulaUqdY_GVXhDthLYDI-8" target="sulaUqdY_GVXhDthLYDI-9">
          <mxGeometry width="50" height="50" relative="1" as="geometry">
            <mxPoint x="180" y="830" as="sourcePoint" />
            <mxPoint x="340" y="950" as="targetPoint" />
            <Array as="points">
              <mxPoint x="260" y="830" />
            </Array>
          </mxGeometry>
        </mxCell>
        <mxCell id="sulaUqdY_GVXhDthLYDI-27" value="Утверждённый &lt;br&gt;проект" style="edgeLabel;html=1;align=center;verticalAlign=middle;resizable=0;points=[];" vertex="1" connectable="0" parent="sulaUqdY_GVXhDthLYDI-18">
          <mxGeometry x="0.0495" y="-2" relative="1" as="geometry">
            <mxPoint x="43" y="-17" as="offset" />
          </mxGeometry>
        </mxCell>
        <mxCell id="sulaUqdY_GVXhDthLYDI-19" value="Документация" style="rounded=0;whiteSpace=wrap;html=1;fillColor=#d5e8d4;strokeColor=#82b366;" vertex="1" parent="1">
          <mxGeometry x="650" y="840" width="120" height="40" as="geometry" />
        </mxCell>
        <mxCell id="sulaUqdY_GVXhDthLYDI-20" value="Акты &lt;br&gt;выполненных &lt;br&gt;работ" style="endArrow=classic;html=1;rounded=0;exitX=1;exitY=0.5;exitDx=0;exitDy=0;entryX=0;entryY=0.5;entryDx=0;entryDy=0;fillColor=#dae8fc;strokeColor=#6c8ebf;" edge="1" parent="1" source="sulaUqdY_GVXhDthLYDI-9" target="sulaUqdY_GVXhDthLYDI-19">
          <mxGeometry x="-0.254" y="-42" width="50" height="50" relative="1" as="geometry">
            <mxPoint x="500" y="960" as="sourcePoint" />
            <mxPoint x="550" y="910" as="targetPoint" />
            <Array as="points">
              <mxPoint x="520" y="980" />
            </Array>
            <mxPoint as="offset" />
          </mxGeometry>
        </mxCell>
        <mxCell id="sulaUqdY_GVXhDthLYDI-21" value="Заказчик" style="whiteSpace=wrap;html=1;aspect=fixed;fillColor=#dae8fc;strokeColor=#6c8ebf;" vertex="1" parent="1">
          <mxGeometry x="440" y="640" width="80" height="80" as="geometry" />
        </mxCell>
        <mxCell id="sulaUqdY_GVXhDthLYDI-22" value="" style="endArrow=classic;html=1;rounded=0;exitX=0;exitY=0.5;exitDx=0;exitDy=0;entryX=1;entryY=0;entryDx=0;entryDy=0;fillColor=#dae8fc;strokeColor=#6c8ebf;" edge="1" parent="1" source="sulaUqdY_GVXhDthLYDI-21" target="sulaUqdY_GVXhDthLYDI-8">
          <mxGeometry width="50" height="50" relative="1" as="geometry">
            <mxPoint x="290" y="690" as="sourcePoint" />
            <mxPoint x="340" y="640" as="targetPoint" />
            <Array as="points">
              <mxPoint x="280" y="690" />
            </Array>
          </mxGeometry>
        </mxCell>
        <mxCell id="sulaUqdY_GVXhDthLYDI-26" value="Список исправлений" style="edgeLabel;html=1;align=center;verticalAlign=middle;resizable=0;points=[];" vertex="1" connectable="0" parent="sulaUqdY_GVXhDthLYDI-22">
          <mxGeometry x="-0.1176" y="-2" relative="1" as="geometry">
            <mxPoint x="18" y="-17" as="offset" />
          </mxGeometry>
        </mxCell>
        <mxCell id="sulaUqdY_GVXhDthLYDI-23" value="" style="endArrow=classic;html=1;rounded=0;exitX=0.5;exitY=0;exitDx=0;exitDy=0;entryX=0.5;entryY=1;entryDx=0;entryDy=0;fillColor=#dae8fc;strokeColor=#6c8ebf;" edge="1" parent="1" source="sulaUqdY_GVXhDthLYDI-9" target="sulaUqdY_GVXhDthLYDI-21">
          <mxGeometry width="50" height="50" relative="1" as="geometry">
            <mxPoint x="420" y="860" as="sourcePoint" />
            <mxPoint x="470" y="810" as="targetPoint" />
            <Array as="points">
              <mxPoint x="450" y="840" />
            </Array>
          </mxGeometry>
        </mxCell>
        <mxCell id="sulaUqdY_GVXhDthLYDI-24" value="Чеки на &lt;br&gt;материалы" style="endArrow=classic;html=1;rounded=0;exitX=0.5;exitY=0;exitDx=0;exitDy=0;entryX=0;entryY=0.5;entryDx=0;entryDy=0;fillColor=#dae8fc;strokeColor=#6c8ebf;" edge="1" parent="1" source="sulaUqdY_GVXhDthLYDI-9" target="sulaUqdY_GVXhDthLYDI-19">
          <mxGeometry x="-0.1592" y="-28" width="50" height="50" relative="1" as="geometry">
            <mxPoint x="440" y="910" as="sourcePoint" />
            <mxPoint x="490" y="860" as="targetPoint" />
            <Array as="points">
              <mxPoint x="450" y="840" />
            </Array>
            <mxPoint as="offset" />
          </mxGeometry>
        </mxCell>
        <mxCell id="sulaUqdY_GVXhDthLYDI-29" value="2&lt;br&gt;Подтверждение выполнения работы" style="ellipse;whiteSpace=wrap;html=1;aspect=fixed;fillColor=#fff2cc;strokeColor=#d6b656;" vertex="1" parent="1">
          <mxGeometry x="550" y="1480" width="120" height="120" as="geometry" />
        </mxCell>
        <mxCell id="sulaUqdY_GVXhDthLYDI-30" value="" style="endArrow=classic;html=1;rounded=0;fillColor=#e1d5e7;strokeColor=#9673a6;" edge="1" parent="1">
          <mxGeometry width="50" height="50" relative="1" as="geometry">
            <mxPoint x="670" y="1540" as="sourcePoint" />
            <mxPoint x="770" y="1540" as="targetPoint" />
          </mxGeometry>
        </mxCell>
        <mxCell id="sulaUqdY_GVXhDthLYDI-31" value="Акт приёмки" style="edgeLabel;html=1;align=center;verticalAlign=middle;resizable=0;points=[];" vertex="1" connectable="0" parent="sulaUqdY_GVXhDthLYDI-30">
          <mxGeometry x="-0.36" y="1" relative="1" as="geometry">
            <mxPoint x="8" y="-9" as="offset" />
          </mxGeometry>
        </mxCell>
        <mxCell id="sulaUqdY_GVXhDthLYDI-32" value="Документация" style="rounded=0;whiteSpace=wrap;html=1;fillColor=#d5e8d4;strokeColor=#82b366;" vertex="1" parent="1">
          <mxGeometry x="600" y="1280" width="120" height="40" as="geometry" />
        </mxCell>
        <mxCell id="sulaUqdY_GVXhDthLYDI-33" value="1&lt;br&gt;Проверка выполненной работы" style="ellipse;whiteSpace=wrap;html=1;aspect=fixed;fillColor=#fff2cc;strokeColor=#d6b656;" vertex="1" parent="1">
          <mxGeometry x="140" y="1330" width="120" height="120" as="geometry" />
        </mxCell>
        <mxCell id="sulaUqdY_GVXhDthLYDI-34" value="" style="endArrow=classic;html=1;rounded=0;entryX=0;entryY=0.5;entryDx=0;entryDy=0;fillColor=#e1d5e7;strokeColor=#9673a6;startArrow=circle;startFill=1;" edge="1" parent="1" target="sulaUqdY_GVXhDthLYDI-33">
          <mxGeometry width="50" height="50" relative="1" as="geometry">
            <mxPoint x="20" y="1390" as="sourcePoint" />
            <mxPoint x="610" y="1110" as="targetPoint" />
            <Array as="points">
              <mxPoint x="70" y="1390" />
              <mxPoint x="110" y="1390" />
            </Array>
          </mxGeometry>
        </mxCell>
        <mxCell id="sulaUqdY_GVXhDthLYDI-37" value="Акты&lt;br style=&quot;border-color: var(--border-color);&quot;&gt;выполненных&lt;br style=&quot;border-color: var(--border-color);&quot;&gt;работ" style="edgeLabel;html=1;align=center;verticalAlign=middle;resizable=0;points=[];" vertex="1" connectable="0" parent="sulaUqdY_GVXhDthLYDI-34">
          <mxGeometry x="0.1222" y="3" relative="1" as="geometry">
            <mxPoint y="-27" as="offset" />
          </mxGeometry>
        </mxCell>
        <mxCell id="sulaUqdY_GVXhDthLYDI-35" value="" style="endArrow=classic;html=1;rounded=0;exitX=1;exitY=0.5;exitDx=0;exitDy=0;entryX=0;entryY=0.5;entryDx=0;entryDy=0;fillColor=#dae8fc;strokeColor=#6c8ebf;" edge="1" parent="1" source="sulaUqdY_GVXhDthLYDI-33" target="sulaUqdY_GVXhDthLYDI-32">
          <mxGeometry width="50" height="50" relative="1" as="geometry">
            <mxPoint x="280" y="1390" as="sourcePoint" />
            <mxPoint x="330" y="1340" as="targetPoint" />
            <Array as="points">
              <mxPoint x="400" y="1390" />
            </Array>
          </mxGeometry>
        </mxCell>
        <mxCell id="sulaUqdY_GVXhDthLYDI-38" value="Отчёт о &lt;br&gt;выполненной &lt;br&gt;проверке" style="edgeLabel;html=1;align=center;verticalAlign=middle;resizable=0;points=[];" vertex="1" connectable="0" parent="sulaUqdY_GVXhDthLYDI-35">
          <mxGeometry x="-0.2783" relative="1" as="geometry">
            <mxPoint x="100" as="offset" />
          </mxGeometry>
        </mxCell>
        <mxCell id="sulaUqdY_GVXhDthLYDI-36" value="" style="endArrow=classic;html=1;rounded=0;exitX=1;exitY=0.5;exitDx=0;exitDy=0;entryX=0;entryY=0.5;entryDx=0;entryDy=0;fillColor=#e1d5e7;strokeColor=#9673a6;" edge="1" parent="1" source="sulaUqdY_GVXhDthLYDI-33" target="sulaUqdY_GVXhDthLYDI-29">
          <mxGeometry width="50" height="50" relative="1" as="geometry">
            <mxPoint x="400" y="1450" as="sourcePoint" />
            <mxPoint x="450" y="1400" as="targetPoint" />
            <Array as="points">
              <mxPoint x="400" y="1390" />
            </Array>
          </mxGeometry>
        </mxCell>
      </root>
    </mxGraphModel>
  </diagram>
</mxfile>
